<svg xmlns="http://www.w3.org/2000/svg" viewBox="0 0 900 1050" role="img" aria-labelledby="title desc">
  <title id="title">Calm Japanese matcha station with morning light</title>
  <desc id="desc">Stylized placeholder illustration of a matcha bowl, bamboo whisk, scoop, linen, and plant on a wooden tray.</desc>
  <rect width="900" height="1050" fill="#e8eadf"/>
  <circle cx="760" cy="175" r="220" fill="#fff9de" opacity=".75"/>
  <rect y="660" width="900" height="390" fill="#c9a979"/>
  <rect x="80" y="620" width="740" height="270" rx="34" fill="#b88955"/>
  <path d="M210 645h310c0 145-55 207-155 207s-155-62-155-207z" fill="#f6f0e3"/>
  <ellipse cx="365" cy="649" rx="155" ry="44" fill="#47634a"/>
  <ellipse cx="365" cy="644" rx="120" ry="26" fill="#73916e"/>
  <g stroke="#8b6f3f" stroke-width="10" stroke-linecap="round">
    <path d="M600 405l-12 290"/><path d="M560 710q30-75 60 0"/><path d="M580 710q28-80 55 0"/><path d="M600 710q24-75 48 0"/>
  </g>
  <path d="M675 757l135-67" stroke="#765936" stroke-width="18" stroke-linecap="round"/>
  <path d="M115 745q70-55 150 20t180 28" fill="none" stroke="#d9d0bf" stroke-width="42" opacity=".85"/>
  <path d="M100 230q90-160 190 0v260h-190z" fill="#d9c29a"/>
  <g fill="#557959"><ellipse cx="180" cy="155" rx="65" ry="28" transform="rotate(-34 180 155)"/><ellipse cx="245" cy="210" rx="70" ry="30" transform="rotate(31 245 210)"/><ellipse cx="145" cy="245" rx="66" ry="27" transform="rotate(-18 145 245)"/></g>
  <path d="M190 165v290" stroke="#557959" stroke-width="10"/>
  <text x="450" y="965" text-anchor="middle" fill="#2d4432" font-family="Georgia,serif" font-size="28">Calm matcha station · morning light</text>
</svg>
